<svg xmlns="http://www.w3.org/2000/svg" viewBox="0 0 800 600" role="img" aria-label="Modern garage workshop with a car on a lift">
  <defs>
    <linearGradient id="bg" x1="0" y1="0" x2="1" y2="1">
      <stop offset="0" stop-color="#fff7ed"/>
      <stop offset="1" stop-color="#ffedd5"/>
    </linearGradient>
  </defs>
  <rect width="800" height="600" rx="24" fill="url(#bg)"/>
  <rect x="80" y="380" width="640" height="14" rx="7" fill="#fdba74"/>
  <g fill="#f97316">
    <rect x="160" y="300" width="20" height="90" rx="6"/>
    <rect x="620" y="300" width="20" height="90" rx="6"/>
  </g>
  <g>
    <path d="M250 330 q10 -60 80 -64 l40 -36 q14 -12 36 -12 h70 q24 0 38 14 l38 34 q70 6 78 64 z" fill="#0f172a"/>
    <rect x="240" y="324" width="320" height="34" rx="17" fill="#1e293b"/>
    <circle cx="320" cy="360" r="30" fill="#0f172a"/>
    <circle cx="320" cy="360" r="14" fill="#94a3b8"/>
    <circle cx="490" cy="360" r="30" fill="#0f172a"/>
    <circle cx="490" cy="360" r="14" fill="#94a3b8"/>
    <path d="M382 234 h60 q14 0 24 10 l24 22 h-128 l8 -22 q4 -10 12 -10z" fill="#7dd3fc"/>
  </g>
  <g fill="#fb923c" opacity="0.7">
    <circle cx="130" cy="150" r="10"/>
    <circle cx="680" cy="120" r="14"/>
    <circle cx="600" cy="200" r="6"/>
  </g>
  <path d="M395 90 l-28 50 h22 l-8 44 32 -56 h-22 l12 -38z" fill="#f97316"/>
</svg>
