<svg xmlns="http://www.w3.org/2000/svg" viewBox="0 0 800 600" role="img" aria-label="Mechanic inspecting a vehicle in the Castleford workshop">
  <defs>
    <linearGradient id="bg2" x1="0" y1="0" x2="0" y2="1">
      <stop offset="0" stop-color="#f8fafc"/>
      <stop offset="1" stop-color="#e2e8f0"/>
    </linearGradient>
  </defs>
  <rect width="800" height="600" rx="24" fill="url(#bg2)"/>
  <rect x="60" y="430" width="680" height="12" rx="6" fill="#cbd5e1"/>
  <g>
    <path d="M300 400 q12 -70 95 -74 l45 -42 q16 -14 42 -14 h60 q28 0 44 16 l42 40 q82 8 90 74 z" fill="#f97316"/>
    <circle cx="380" cy="428" r="34" fill="#0f172a"/>
    <circle cx="380" cy="428" r="15" fill="#94a3b8"/>
    <circle cx="600" cy="428" r="34" fill="#0f172a"/>
    <circle cx="600" cy="428" r="15" fill="#94a3b8"/>
    <path d="M455 286 h48 q14 0 24 10 l26 24 h-116 l8 -24 q4 -10 10 -10z" fill="#bae6fd"/>
  </g>
  <g>
    <circle cx="190" cy="280" r="34" fill="#fdba74"/>
    <rect x="160" y="318" width="60" height="100" rx="22" fill="#1e293b"/>
    <rect x="150" y="330" width="22" height="76" rx="11" fill="#1e293b" transform="rotate(18 150 330)"/>
    <rect x="208" y="330" width="22" height="76" rx="11" fill="#1e293b" transform="rotate(-30 208 330)"/>
    <rect x="172" y="252" width="36" height="14" rx="7" fill="#f97316"/>
  </g>
  <g fill="#f97316" opacity="0.5">
    <circle cx="700" cy="120" r="12"/>
    <circle cx="120" cy="120" r="8"/>
  </g>
</svg>
